name C:\Users\u0101727\Documents\MyRepositories\upper-imu-dc\Results\main_tracking\Case_14\ABD01_linearAccelerations_groundFrame.mot
datacolumns 4
datarows 105
range 2.81000000 3.85000000
endheader 
time	radius_imu_x	radius_imu_y	radius_imu_z	
          2.81000000	          0.66066506	         10.75615233	          2.72719547	
          2.82000000	          0.70406855	         10.22640100	          1.29955153	
          2.83000000	          0.71625947	          9.94263431	          0.31331196	
          2.84000000	          0.71646183	          9.78413868	         -0.32208404	
          2.85000000	          0.70434601	          9.71239876	         -0.68571707	
          2.86000000	          0.67302709	          9.69781986	         -0.83992174	
          2.87000000	          0.61592223	          9.71771284	         -0.83765733	
          2.88000000	          0.52915281	          9.75522789	         -0.72446604	
          2.89000000	          0.41388094	          9.79800464	         -0.54144228	
          2.90000000	          0.27775001	          9.83717510	         -0.32769376	
          2.91000000	          0.13458061	          9.86671944	         -0.12091617	
          2.92000000	          0.00125044	          9.88279643	          0.04607107	
          2.93000000	         -0.10850846	          9.88307550	          0.15315876	
          2.94000000	         -0.19032277	          9.86668067	          0.20025261	
          2.95000000	         -0.24946913	          9.83487502	          0.20573849	
          2.96000000	         -0.29366107	          9.79188228	          0.19475797	
          2.97000000	         -0.32528966	          9.74514233	          0.18728724	
          2.98000000	         -0.34140286	          9.70449990	          0.19627792	
          2.99000000	         -0.33957541	          9.68031167	          0.23262357	
          3.00000000	         -0.32120556	          9.68117288	          0.30667453	
          3.01000000	         -0.28986012	          9.71197662	          0.42473597	
          3.02000000	         -0.24879405	          9.77290767	          0.58621065	
          3.03000000	         -0.20024361	          9.85962639	          0.78404289	
          3.04000000	         -0.14605794	          9.96442710	          1.00702306	
          3.05000000	         -0.08849666	         10.07798668	          1.24197193	
          3.06000000	         -0.03013047	         10.19141399	          1.47483755	
          3.07000000	          0.02711160	         10.29794005	          1.69119112	
          3.08000000	          0.08237854	         10.39335262	          1.87740364	
          3.09000000	          0.13465512	         10.47512198	          2.02325276	
          3.10000000	          0.18055935	         10.54127350	          2.12503406	
          3.11000000	          0.21342387	         10.59001416	          2.18671101	
          3.12000000	          0.22464363	         10.62020576	          2.21782531	
          3.13000000	          0.20636010	         10.63205962	          2.22920096	
          3.14000000	          0.15396877	         10.62743784	          2.22877016	
          3.15000000	          0.06776584	         10.60960196	          2.21908078	
          3.16000000	         -0.04650541	         10.58260072	          2.19684410	
          3.17000000	         -0.17833129	         10.55055651	          2.15407198	
          3.18000000	         -0.31421299	         10.51693855	          2.08041737	
          3.19000000	         -0.44010981	         10.48392967	          1.96638663	
          3.20000000	         -0.54392502	         10.45211762	          1.80653192	
          3.21000000	         -0.61735008	         10.42069721	          1.60136972	
          3.22000000	         -0.65663421	         10.38806996	          1.35766319	
          3.23000000	         -0.66227641	         10.35253128	          1.08783778	
          3.24000000	         -0.63777805	         10.31294397	          0.80899041	
          3.25000000	         -0.58752665	         10.26961301	          0.54088979	
          3.26000000	         -0.51421074	         10.22535251	          0.30261012	
          3.27000000	         -0.41700055	         10.18600959	          0.10911054	
          3.28000000	         -0.29189689	         10.15958690	         -0.03029705	
          3.29000000	         -0.13416874	         10.15413310	         -0.11139269	
          3.30000000	          0.05907151	         10.17564591	         -0.13405340	
          3.31000000	          0.28803967	         10.22706808	         -0.10208681	
          3.32000000	          0.55110385	         10.30828214	         -0.02351446	
          3.33000000	          0.84585627	         10.41618561	          0.08978516	
          3.34000000	          1.16955289	         10.54430306	          0.22355651	
          3.35000000	          1.51914693	         10.68243851	          0.36324767	
          3.36000000	          1.89162215	         10.81748800	          0.49567998	
          3.37000000	          2.28487753	         10.93608338	          0.60972395	
          3.38000000	          2.69830045	         11.02841185	          0.69621227	
          3.39000000	          3.13144421	         11.09134102	          0.74751353	
          3.40000000	          3.58026701	         11.12889093	          0.75697153	
          3.41000000	          4.03261406	         11.14943195	          0.71888098	
          3.42000000	          4.46548458	         11.16098822	          0.62979243	
          3.43000000	          4.84540023	         11.16724100	          0.49046551	
          3.44000000	          5.13160057	         11.16634339	          0.30685067	
          3.45000000	          5.28085240	         11.15262804	          0.08945023	
          3.46000000	          5.25240475	         11.11934391	         -0.14840228	
          3.47000000	          5.01203255	         11.06050000	         -0.39247722	
          3.48000000	          4.53483679	         10.97120910	         -0.62915638	
          3.49000000	          3.80711077	         10.84718129	         -0.84636023	
          3.50000000	          2.82785174	         10.68456457	         -1.03417114	
          3.51000000	          1.61024642	         10.48112428	         -1.18549876	
          3.52000000	          0.18338723	         10.23845117	         -1.29698015	
          3.53000000	         -1.40682792	          9.96494977	         -1.37020411	
          3.54000000	         -3.09331952	          9.67416895	         -1.41403138	
          3.55000000	         -4.79632927	          9.38964335	         -1.44631926	
          3.56000000	         -6.39587922	          9.12633906	         -1.50525581	
          3.57000000	         -7.77453199	          8.90530091	         -1.63405754	
          3.58000000	         -8.57153289	          8.72778254	         -2.02755194	
          3.59000000	         -8.95450699	          8.44596967	         -2.18165587	
          3.60000000	        -10.60343849	          8.67936221	         -1.35190906	
          3.61000000	        -10.45646998	          8.69313540	         -1.15725196	
          3.62000000	        -10.29925097	          9.03135627	         -1.03549400	
          3.63000000	        -10.22068087	          9.26903079	         -0.91264803	
          3.64000000	         -9.57407861	          9.63322929	         -0.92320353	
          3.65000000	         -9.30288064	          9.84494404	         -0.82585910	
          3.66000000	         -8.40823165	         10.02494904	         -1.04898351	
          3.67000000	         -7.72974950	         10.16045731	         -1.06192666	
          3.68000000	         -6.84146943	         10.24792622	         -1.16423738	
          3.69000000	         -5.92753806	         10.29780358	         -1.28106864	
          3.70000000	         -5.00194901	         10.30807394	         -1.39404770	
          3.71000000	         -4.09456786	         10.30132581	         -1.49953484	
          3.72000000	         -3.21151553	         10.29220699	         -1.59316740	
          3.73000000	         -2.36957913	         10.27850099	         -1.66206592	
          3.74000000	         -1.58400549	         10.27718870	         -1.70695766	
          3.75000000	         -0.85351337	         10.28389347	         -1.72290951	
          3.76000000	         -0.18438160	         10.30058448	         -1.70998687	
          3.77000000	          0.42602553	         10.32576054	         -1.67473545	
          3.78000000	          0.98078213	         10.35829552	         -1.63026431	
          3.79000000	          1.48181540	         10.39455222	         -1.58969109	
          3.80000000	          1.92485799	         10.42831916	         -1.55991576	
          3.81000000	          2.29987030	         10.45165885	         -1.53949254	
          3.82000000	          2.59488841	         10.45736545	         -1.52124797	
          3.83000000	          2.80112832	         10.44141854	         -1.49722360	
          3.84000000	          2.91653584	         10.40415080	         -1.46293321	
          3.85000000	          2.94651856	         10.34965664	         -1.41867439	
